<svg xmlns="http://www.w3.org/2000/svg" version="1.1" xmlns:xlink="http://www.w3.org/1999/xlink" xmlns:svgjs="http://svgjs.com/svgjs" width="1440" height="560" preserveAspectRatio="none" viewBox="0 0 1440 560"><g mask="url(&quot;#SvgjsMask2819&quot;)" fill="none"><rect width="1440" height="560" x="0" y="0" fill="url(#SvgjsLinearGradient2820)"></rect><path d="M660 265L251 -144" stroke-width="8" stroke="url(#SvgjsLinearGradient2821)" stroke-linecap="round" class="TopLeft"></path><path d="M319 474L710 865" stroke-width="8" stroke="url(#SvgjsLinearGradient2821)" stroke-linecap="round" class="TopLeft"></path><path d="M110 249L-217 -78" stroke-width="8" stroke="url(#SvgjsLinearGradient2822)" stroke-linecap="round" class="BottomRight"></path><path d="M1230 29L974 -227" stroke-width="6" stroke="url(#SvgjsLinearGradient2822)" stroke-linecap="round" class="BottomRight"></path><path d="M1293 516L1629 852" stroke-width="6" stroke="url(#SvgjsLinearGradient2822)" stroke-linecap="round" class="BottomRight"></path><path d="M907 190L699 -18" stroke-width="10" stroke="url(#SvgjsLinearGradient2821)" stroke-linecap="round" class="TopLeft"></path><path d="M234 355L633 754" stroke-width="10" stroke="url(#SvgjsLinearGradient2822)" stroke-linecap="round" class="BottomRight"></path><path d="M369 517L546 694" stroke-width="10" stroke="url(#SvgjsLinearGradient2822)" stroke-linecap="round" class="BottomRight"></path><path d="M499 270L821 592" stroke-width="6" stroke="url(#SvgjsLinearGradient2821)" stroke-linecap="round" class="TopLeft"></path><path d="M39 211L279 451" stroke-width="6" stroke="url(#SvgjsLinearGradient2821)" stroke-linecap="round" class="TopLeft"></path><path d="M412 489L588 665" stroke-width="10" stroke="url(#SvgjsLinearGradient2822)" stroke-linecap="round" class="BottomRight"></path><path d="M215 164L27 -24" stroke-width="8" stroke="url(#SvgjsLinearGradient2822)" stroke-linecap="round" class="BottomRight"></path><path d="M1268 317L1126 175" stroke-width="10" stroke="url(#SvgjsLinearGradient2821)" stroke-linecap="round" class="TopLeft"></path><path d="M533 491L335 293" stroke-width="10" stroke="url(#SvgjsLinearGradient2822)" stroke-linecap="round" class="BottomRight"></path><path d="M472 517L708 753" stroke-width="10" stroke="url(#SvgjsLinearGradient2821)" stroke-linecap="round" class="TopLeft"></path><path d="M274 477L32 235" stroke-width="10" stroke="url(#SvgjsLinearGradient2822)" stroke-linecap="round" class="BottomRight"></path><path d="M783 121L1003 341" stroke-width="8" stroke="url(#SvgjsLinearGradient2821)" stroke-linecap="round" class="TopLeft"></path><path d="M530 196L832 498" stroke-width="10" stroke="url(#SvgjsLinearGradient2822)" stroke-linecap="round" class="BottomRight"></path><path d="M561 544L151 134" stroke-width="8" stroke="url(#SvgjsLinearGradient2822)" stroke-linecap="round" class="BottomRight"></path><path d="M1440 188L1294 42" stroke-width="6" stroke="url(#SvgjsLinearGradient2822)" stroke-linecap="round" class="BottomRight"></path><path d="M1106 122L832 -152" stroke-width="8" stroke="url(#SvgjsLinearGradient2821)" stroke-linecap="round" class="TopLeft"></path><path d="M1354 527L1607 780" stroke-width="10" stroke="url(#SvgjsLinearGradient2821)" stroke-linecap="round" class="TopLeft"></path><path d="M1238 513L1638 913" stroke-width="8" stroke="url(#SvgjsLinearGradient2821)" stroke-linecap="round" class="TopLeft"></path><path d="M1331 515L1598 782" stroke-width="8" stroke="url(#SvgjsLinearGradient2822)" stroke-linecap="round" class="BottomRight"></path><path d="M1393 310L1601 518" stroke-width="10" stroke="url(#SvgjsLinearGradient2822)" stroke-linecap="round" class="BottomRight"></path><path d="M381 481L149 249" stroke-width="6" stroke="url(#SvgjsLinearGradient2821)" stroke-linecap="round" class="TopLeft"></path><path d="M726 263L920 457" stroke-width="8" stroke="url(#SvgjsLinearGradient2821)" stroke-linecap="round" class="TopLeft"></path><path d="M758 337L350 -71" stroke-width="6" stroke="url(#SvgjsLinearGradient2821)" stroke-linecap="round" class="TopLeft"></path><path d="M351 235L594 478" stroke-width="8" stroke="url(#SvgjsLinearGradient2821)" stroke-linecap="round" class="TopLeft"></path><path d="M1052 197L656 -199" stroke-width="10" stroke="url(#SvgjsLinearGradient2821)" stroke-linecap="round" class="TopLeft"></path><path d="M476 313L161 -2" stroke-width="8" stroke="url(#SvgjsLinearGradient2821)" stroke-linecap="round" class="TopLeft"></path><path d="M1435 131L1587 283" stroke-width="8" stroke="url(#SvgjsLinearGradient2821)" stroke-linecap="round" class="TopLeft"></path><path d="M264 485L15 236" stroke-width="8" stroke="url(#SvgjsLinearGradient2822)" stroke-linecap="round" class="BottomRight"></path><path d="M1203 276L1528 601" stroke-width="6" stroke="url(#SvgjsLinearGradient2822)" stroke-linecap="round" class="BottomRight"></path><path d="M868 428L610 170" stroke-width="8" stroke="url(#SvgjsLinearGradient2822)" stroke-linecap="round" class="BottomRight"></path><path d="M1032 203L1296 467" stroke-width="8" stroke="url(#SvgjsLinearGradient2821)" stroke-linecap="round" class="TopLeft"></path><path d="M424 550L665 791" stroke-width="10" stroke="url(#SvgjsLinearGradient2821)" stroke-linecap="round" class="TopLeft"></path><path d="M12 506L211 705" stroke-width="6" stroke="url(#SvgjsLinearGradient2822)" stroke-linecap="round" class="BottomRight"></path><path d="M862 336L1184 658" stroke-width="6" stroke="url(#SvgjsLinearGradient2821)" stroke-linecap="round" class="TopLeft"></path></g><defs><mask id="SvgjsMask2819"><rect width="1440" height="560" fill="#ffffff"></rect></mask><linearGradient x1="15.28%" y1="-39.29%" x2="84.72%" y2="139.29%" gradientUnits="userSpaceOnUse" id="SvgjsLinearGradient2820"><stop stop-color="rgba(255, 255, 255, 1)" offset="0"></stop><stop stop-color="rgba(255, 255, 255, 0.74)" offset="1"></stop></linearGradient><linearGradient x1="100%" y1="100%" x2="0%" y2="0%" id="SvgjsLinearGradient2821"><stop stop-color="rgba(47, 85, 212, 0)" offset="0"></stop><stop stop-color="rgba(47, 85, 212, 0.44)" offset="1"></stop></linearGradient><linearGradient x1="0%" y1="0%" x2="100%" y2="100%" id="SvgjsLinearGradient2822"><stop stop-color="rgba(47, 85, 212, 0)" offset="0"></stop><stop stop-color="rgba(47, 85, 212, 0.44)" offset="1"></stop></linearGradient></defs></svg>